<mxfile host="app.diagrams.net" agent="Mozilla/5.0 (Windows NT 10.0; Win64; x64) AppleWebKit/537.36 (KHTML, like Gecko) Chrome/139.0.0.0 Safari/537.36" version="28.2.0">
  <diagram name="Page-1" id="66CicvrjOmHv20ThDdPF">
    <mxGraphModel dx="918" dy="490" grid="1" gridSize="10" guides="1" tooltips="1" connect="1" arrows="1" fold="1" page="1" pageScale="1" pageWidth="850" pageHeight="1100" math="0" shadow="0">
      <root>
        <mxCell id="0" />
        <mxCell id="1" parent="0" />
        <mxCell id="3LnRlk0zm_t4WdGvQwbi-1" value="Double Pendulum" style="swimlane;fontStyle=1;align=center;verticalAlign=top;childLayout=stackLayout;horizontal=1;startSize=26;horizontalStack=0;resizeParent=1;resizeParentMax=0;resizeLast=0;collapsible=1;marginBottom=0;whiteSpace=wrap;html=1;" vertex="1" parent="1">
          <mxGeometry x="350" y="360" width="200" height="300" as="geometry">
            <mxRectangle x="350" y="360" width="140" height="30" as="alternateBounds" />
          </mxGeometry>
        </mxCell>
        <mxCell id="3LnRlk0zm_t4WdGvQwbi-2" value="+ origin_x: float&lt;div&gt;+ origin_y: float&lt;/div&gt;&lt;div&gt;+ length_rod_1: float&lt;/div&gt;&lt;div&gt;+ length_rod_2: float&lt;/div&gt;&lt;div&gt;+ mass_bob_1: float&lt;/div&gt;&lt;div&gt;+ mass_bob_2: float&lt;/div&gt;&lt;div&gt;+ g: float&lt;/div&gt;&lt;div&gt;+ theta_1: float&lt;/div&gt;&lt;div&gt;+ theta_2: float&lt;/div&gt;&lt;div&gt;+ omega_1: float&lt;/div&gt;&lt;div&gt;+ omega_2: float&lt;/div&gt;&lt;div&gt;+ x_1: float&lt;/div&gt;&lt;div&gt;+ y_1: float&lt;/div&gt;&lt;div&gt;+ x_2: float&lt;/div&gt;&lt;div&gt;+ y_2: float&lt;/div&gt;" style="text;strokeColor=none;fillColor=none;align=left;verticalAlign=top;spacingLeft=4;spacingRight=4;overflow=hidden;rotatable=0;points=[[0,0.5],[1,0.5]];portConstraint=eastwest;whiteSpace=wrap;html=1;" vertex="1" parent="3LnRlk0zm_t4WdGvQwbi-1">
          <mxGeometry y="26" width="200" height="224" as="geometry" />
        </mxCell>
        <mxCell id="3LnRlk0zm_t4WdGvQwbi-3" value="" style="line;strokeWidth=1;fillColor=none;align=left;verticalAlign=middle;spacingTop=-1;spacingLeft=3;spacingRight=3;rotatable=0;labelPosition=right;points=[];portConstraint=eastwest;strokeColor=inherit;" vertex="1" parent="3LnRlk0zm_t4WdGvQwbi-1">
          <mxGeometry y="250" width="200" height="8" as="geometry" />
        </mxCell>
        <mxCell id="3LnRlk0zm_t4WdGvQwbi-4" value="+ step(float): None&lt;div&gt;+ get_coords(None): list[dict,dict]&lt;/div&gt;&lt;div&gt;&lt;br&gt;&lt;/div&gt;" style="text;strokeColor=none;fillColor=none;align=left;verticalAlign=top;spacingLeft=4;spacingRight=4;overflow=hidden;rotatable=0;points=[[0,0.5],[1,0.5]];portConstraint=eastwest;whiteSpace=wrap;html=1;" vertex="1" parent="3LnRlk0zm_t4WdGvQwbi-1">
          <mxGeometry y="258" width="200" height="42" as="geometry" />
        </mxCell>
      </root>
    </mxGraphModel>
  </diagram>
</mxfile>
